<?xml version="1.0"?><svg viewBox="0 0 24 24" xmlns="http://www.w3.org/2000/svg"><defs><style>.a{fill:#ffbc44;}.b{fill:#ffdda1;}.c{fill:none;stroke:#191919;stroke-linecap:round;stroke-linejoin:round;}</style></defs><title/><path class="a" d="M3.837,23.217c1.938-.085,4.291,0,6.585,0,2.369,0,4.793-.158,6.7,0,.772.064,1.482.524,2.117.115.491-.632.127-1.48.236-2.33.2-1.613,1.694-3.549-.471-3.96-.922.84-.3,1.637-.824,2.679-.632,1.261-2.9,1.7-5.055,1.864-1.852.143-5.1.329-5.762-.932-.561-1.064-.236-2.715-.236-4.078a14.009,14.009,0,0,1,.236-4.194c2.352.171,5.394-.784,7.055.232,1.11.681.479,2.013,1.764,2.447.883-.237.412-1.38.352-2.447-.037-.686-.035-1.653,0-2.445.048-1.073.461-2.316-.705-2.332-.917.713-.229,1.9-1.177,2.563a3.62,3.62,0,0,1-1.41.351,25.986,25.986,0,0,1-6-.233,44.791,44.791,0,0,1,0-7.224c.8-.793,2.634-.821,3.88-.816,2.18.009,5.583.191,6.232,1.282.352.593.073,1.836.706,1.98,1.272.291.652-1.98.7-3.029.039-.787.387-1.294.235-1.865C18.594.283,17.98.565,17.594.613c-4,.494-10.078.232-14.344.232-.51,0-1.4-.252-1.764.35C1.24,2.54,3.077,1.984,3.719,2.71a5.271,5.271,0,0,1,.588,1.981c.187,1.867,0,4.719,0,7.457,0,2.892.22,5.809,0,7.573a5.193,5.193,0,0,1-.588,1.748c-.8.8-2.919-.086-2.7,1.632.743.5,1.821.159,2.822.116"/><path class="b" d="M3.25.845c-.51,0-1.4-.252-1.764.35C1.24,2.54,3.077,1.984,3.719,2.71a5.271,5.271,0,0,1,.588,1.981c.187,1.867,0,4.719,0,7.457,0,.505.008,1.008.018,1.508l3.11-3.11c-.061-.01-.131-.018-.188-.029a44.791,44.791,0,0,1,0-7.224c.8-.793,2.634-.821,3.88-.816a24.694,24.694,0,0,1,4.077.3L17.345.636C13.344,1.093,7.432.845,3.25.845Z"/><path class="c" d="M3.837,23.217c1.938-.085,4.291,0,6.585,0,2.369,0,4.793-.158,6.7,0,.772.064,1.482.524,2.117.115.491-.632.127-1.48.236-2.33.2-1.613,1.694-3.549-.471-3.96-.922.84-.3,1.637-.824,2.679-.632,1.261-2.9,1.7-5.055,1.864-1.852.143-5.1.329-5.762-.932-.561-1.064-.236-2.715-.236-4.078a14.009,14.009,0,0,1,.236-4.194c2.352.171,5.394-.784,7.055.232,1.11.681.479,2.013,1.764,2.447.883-.237.412-1.38.352-2.447-.037-.686-.035-1.653,0-2.445.048-1.073.461-2.316-.705-2.332-.917.713-.229,1.9-1.177,2.563a3.62,3.62,0,0,1-1.41.351,25.986,25.986,0,0,1-6-.233,44.791,44.791,0,0,1,0-7.224c.8-.793,2.634-.821,3.88-.816,2.18.009,5.583.191,6.232,1.282.352.593.073,1.836.706,1.98,1.272.291.652-1.98.7-3.029.039-.787.387-1.294.235-1.865C18.594.283,17.98.565,17.594.613c-4,.494-10.078.232-14.344.232-.51,0-1.4-.252-1.764.35C1.24,2.54,3.077,1.984,3.719,2.71a5.271,5.271,0,0,1,.588,1.981c.187,1.867,0,4.719,0,7.457,0,2.892.22,5.809,0,7.573a5.193,5.193,0,0,1-.588,1.748c-.8.8-2.919-.086-2.7,1.632.743.5,1.821.159,2.822.116"/></svg>